<?xml version="1.0" encoding="UTF-8" standalone="no"?>
<!-- Created with Inkscape (http://www.inkscape.org/) -->

<svg
   width="2.5in"
   height="3.5in"
   viewBox="0 0 63.500001 88.900003"
   version="1.1"
   id="svg5"
   inkscape:version="1.1.2 (b8e25be8, 2022-02-05)"
   sodipodi:docname="Jinteki-PE-final.svg"
   xmlns:inkscape="http://www.inkscape.org/namespaces/inkscape"
   xmlns:sodipodi="http://sodipodi.sourceforge.net/DTD/sodipodi-0.dtd"
   xmlns="http://www.w3.org/2000/svg"
   xmlns:svg="http://www.w3.org/2000/svg">
  <sodipodi:namedview
     id="namedview7"
     pagecolor="#ffffff"
     bordercolor="#666666"
     borderopacity="1.0"
     inkscape:pageshadow="2"
     inkscape:pageopacity="0.0"
     inkscape:pagecheckerboard="0"
     inkscape:document-units="in"
     showgrid="false"
     units="in"
     inkscape:zoom="2.3258686"
     inkscape:cx="142.5274"
     inkscape:cy="296.87834"
     inkscape:window-width="1312"
     inkscape:window-height="771"
     inkscape:window-x="19"
     inkscape:window-y="1105"
     inkscape:window-maximized="0"
     inkscape:current-layer="layer1"
     showguides="false" />
  <defs
     id="defs2" />
  <g
     inkscape:label="Layer 1"
     inkscape:groupmode="layer"
     id="layer1">
    <text
       xml:space="preserve"
       style="font-size:2.11667px;line-height:1.25;font-family:'Arial Black';-inkscape-font-specification:'Arial Black, ';display:inline;stroke-width:0.264583"
       x="49.127182"
       y="86.630997"
       id="text1403-1-4"
       inkscape:label="signature"><tspan
         sodipodi:role="line"
         id="tspan1401-8-5"
         style="font-size:2.11667px;stroke-width:0.264583"
         x="49.127182"
         y="86.630997">KEC - '23</tspan></text>
    <path
       style="vector-effect:non-scaling-stroke;fill:#cccccc;stroke:#ff0000;stroke-width:0.00068585;stroke-miterlimit:4;stroke-dasharray:none;-inkscape-stroke:hairline"
       d="m 34.323648,63.887127 c 4.59737,-0.57646 8.09804,-1.95461 11.34707,-4.46715 5.74676,-4.44406 8.61843,-9.97154 9.05238,-17.42435 0.15341,-2.63485 0.10516,-3.09235 -0.6354,-6.02418 -1.04286,-4.12861 -2.18718,-6.46271 -4.44471,-9.06594 -0.90443,-1.04292 -0.90443,-1.04292 -1.73757,-0.40746 -1.00554,0.76697 -2.03266,0.924 -2.4756,0.37848 -0.27871,-0.34325 -0.25079,-0.37516 0.19244,-0.21995 0.41384,0.14493 0.3877,0.0774 -0.12961,-0.33452 -0.35643,-0.28385 -0.90097,-0.51868 -1.21009,-0.52185 -0.30912,-0.003 -0.73761,-0.0731 -0.95219,-0.15549 -0.54506,-0.20915 -1.05521,0.78845 -0.70797,1.38444 0.14681,0.25199 0.26576,0.30755 0.27017,0.12618 0.0128,-0.52226 0.50756,-0.37442 1.122,0.33522 0.52441,0.60564 0.64156,0.6344 1.44111,0.35376 0.6857,-0.24067 0.91323,-0.236 1.0727,0.0221 0.11132,0.18013 0.33209,0.24735 0.4906,0.14938 0.16439,-0.10159 0.28821,-0.005 0.28821,0.22601 0,0.22227 0.12353,0.40412 0.27452,0.40412 0.15097,0 0.20242,0.11666 0.1143,0.25923 -0.22401,0.36247 0.21982,0.32453 0.59523,-0.0509 0.24064,-0.24064 0.39555,-0.1971 0.69165,0.19442 0.52338,0.69202 0.49046,1.21482 -0.11758,1.86746 -0.62162,0.66725 -0.44034,1.30421 0.43359,1.52356 1.08043,0.27116 0.26853,0.64688 -1.50489,0.69638 -1.09544,0.0305 -1.75292,0.17371 -1.9485,0.42414 -0.35444,0.45384 -0.176,1.04774 0.31478,1.04774 0.19719,0 0.29108,0.16126 0.21274,0.3654 -0.0843,0.2197 0.074,0.43341 0.39696,0.53591 0.67249,0.21344 0.69914,0.82688 0.045,1.03452 -0.27073,0.0859 -0.78533,0.44931 -1.14353,0.80752 -0.41966,0.41965 -0.71375,0.5502 -0.82693,0.36708 -0.12528,-0.20271 -0.28403,-0.19424 -0.55366,0.0295 -0.30414,0.25242 -0.3123,0.35444 -0.0418,0.52197 0.32657,0.20222 0.50662,2.55933 0.19549,2.55933 -0.0827,0 -0.38201,0.21589 -0.66524,0.47977 -0.60691,0.56542 -2.08828,0.86529 -2.82303,0.57146 -0.31637,-0.12652 -0.78129,-0.0739 -1.1928,0.13513 -0.74439,0.37801 -1.59732,1.51032 -1.33516,1.77249 0.27885,0.27884 6.09845,-0.15061 6.99949,-0.51652 0.6409,-0.26027 0.84246,-0.50034 0.84246,-1.0034 0,-0.3637 -0.0875,-0.66136 -0.19441,-0.66146 -0.35654,-2.6e-4 -0.27264,-1.26016 0.0933,-1.40058 0.1982,-0.076 0.36037,-0.29509 0.36037,-0.48675 0,-0.60176 1.38558,-1.66815 2.35793,-1.81472 0.88063,-0.13275 0.95655,-0.0854 1.3716,0.85534 0.32487,0.73635 0.63925,1.03977 1.20632,1.16432 0.58548,0.12859 0.76696,0.31316 0.76696,0.78002 0,0.52439 -0.16321,0.63604 -1.14495,0.78326 -0.91934,0.13787 -1.17554,0.29347 -1.30005,0.78959 -0.0996,0.39667 -0.40891,0.67768 -0.86399,0.78486 -0.38989,0.0918 -1.11717,0.3779 -1.61617,0.63572 -1.00474,0.51911 -3.69209,1.01976 -5.47376,1.01976 -1.00425,0 -1.21307,0.0997 -1.60779,0.76794 -0.4572,0.77399 -1.6676,1.29697 -3.02799,1.30834 -0.35644,0.003 -0.82303,0.12028 -1.03689,0.26066 -0.67732,0.44463 0.21219,0.76536 2.13484,0.76973 2.77889,0.006 5.92316,-0.85664 6.15013,-1.68792 0.0954,-0.34963 0.38573,-0.52533 0.91731,-0.55527 0.42771,-0.0241 1.3123,-0.12454 1.96575,-0.22325 1.18809,-0.17947 1.18809,-0.17947 1.18809,0.62703 0,0.88814 -0.20033,1.00919 -0.69126,0.41767 -0.44522,-0.53647 -2.07374,-0.52192 -2.07374,0.0185 0,0.46556 -0.60538,1.14798 -1.01837,1.14798 -0.15275,0 -0.27773,0.12913 -0.27773,0.28695 0,0.15783 -0.1716,0.22111 -0.38133,0.14062 -0.20973,-0.0805 -0.56293,0.0352 -0.78489,0.25723 -0.3132,0.31321 -0.48528,0.33573 -0.76858,0.10061 -0.40361,-0.33496 -1.09994,-0.0758 -1.68253,0.62614 -0.4237,0.51054 -1.74957,0.51689 -2.95278,0.0141 -1.57007,-0.65601 -2.27631,-0.51069 -3.46421,0.71286 -1.65789,1.70764 -3.48246,4.5939 -3.39243,5.36645 0.0759,0.65148 0.11544,0.66262 2.92837,0.82537 8.06475,0.46659 11.91846,2.3147 8.42462,4.04017 -1.61488,0.79753 -4.27268,1.30806 -8.61619,1.65507 -3.34305,0.2671 -9.38054,0.18162 -11.6495,-0.16492 -1.77926,-0.27174 2.28576,1.3745 4.74632,1.92216 3.83928,0.85453 4.52416,0.90367 7.46101,0.53542 z m -20.657107,-6.40315 c -2.8138,-3.3725 -4.5276222,-6.80982 -5.5057109,-11.04252 -0.802437,-3.47257 -0.64781,-8.51891 0.364953,-11.91045 2.4480029,-8.19785 8.9945849,-14.53534 17.2497349,-16.69878 3.51651,-0.92157 8.47129,-0.96954 11.81094,-0.11433 5.01457,1.28413 10.1241,4.53786 13.24325,8.43328 1.63055,2.03634 4.03545,6.78655 4.63131,9.14785 0.22183,0.87913 0.4783,2.48519 0.56991,3.56903 0.0916,1.08384 0.23677,1.90043 0.32256,1.81464 0.0858,-0.0858 0.17056,-0.2629 0.18838,-0.39358 0.0788,-0.5777 0.11922,-0.60466 0.35642,-0.23763 0.1806,0.27945 0.2514,0.0242 0.25171,-0.90726 5e-4,-1.67341 -0.24138,-2.63617 -0.54292,-2.16047 -0.15641,0.24674 -0.22042,0.17432 -0.22326,-0.25261 -0.002,-0.32919 -0.10558,-0.53574 -0.22978,-0.45898 -0.3369,0.20822 -0.55584,-1.94152 -0.26043,-2.55722 0.25003,-0.52109 0.2468,-0.52174 -0.1475,-0.0296 -0.30512,0.38085 -0.40313,0.4092 -0.40313,0.11665 0,-0.21259 0.11891,-0.50543 0.26424,-0.65076 0.58731,-0.58732 -1.44562,-4.71074 -3.74053,-7.58697 -3.84794,-4.82271 -8.98099,-8.05462 -14.74874,-9.28625 -2.80749,-0.5995 -8.42122,-0.5968 -10.86903,0.005 -7.56726,1.86113 -13.841832,6.78568 -17.2441462,13.53391 -3.1038377,6.15623 -3.5219947,14.12048 -1.0645977,20.27642 0.298212,0.74704 0.644451,1.29507 0.7694197,1.21783 0.12497,-0.0772 0.163521,0.0256 0.08567,0.22845 -0.07785,0.20288 0.04846,0.55888 0.280704,0.79111 0.232239,0.23225 0.333301,0.42226 0.224583,0.42226 -0.108718,0 0.01742,0.15727 0.280305,0.3495 0.262887,0.19223 0.407876,0.46293 0.322198,0.60157 -0.17531,0.28365 0.7391502,1.91992 1.0454752,1.87069 0.676395,-0.1087 1.10866,0.20121 2.21375,1.58709 0.681185,0.85425 1.304449,1.55319 1.385039,1.55319 0.0806,0 -0.315754,-0.55408 -0.880784,-1.23129 z m 3.105387,-0.56213 c 0.3275,-0.13097 0.82874,-0.32797 1.11388,-0.43776 0.28514,-0.10979 1.04336,-0.23116 1.68493,-0.26971 6.64622,-0.39935 6.81987,-0.42927 7.02815,-1.21086 0.27855,-1.04536 2.11858,-3.38964 3.1711,-4.04014 1.34592,-0.83183 1.33512,-1.15727 -0.089,-2.67862 -0.70219,-0.75017 -1.6212,-1.74305 -2.04224,-2.2064 -0.59202,-0.6515 -0.97622,-0.84246 -1.69502,-0.84246 -0.51121,0 -0.92947,-0.11666 -0.92947,-0.25923 0,-0.14257 -0.1772,-0.25921 -0.39376,-0.25921 -0.28769,0 -0.35113,-0.16991 -0.23549,-0.63067 0.13653,-0.54398 0.007,-0.70808 -0.94563,-1.19385 -1.01889,-0.5198 -1.16612,-0.53351 -1.91155,-0.17804 -0.77268,0.36846 -0.82022,0.3584 -1.09907,-0.23247 -0.22602,-0.47895 -0.21518,-0.66111 0.0483,-0.8114 0.18688,-0.10659 0.38017,-0.48543 0.42953,-0.84186 0.0752,-0.54345 0.21527,-0.63871 0.8674,-0.59021 0.42771,0.0318 1.22454,0.0769 1.77072,0.10014 0.81057,0.0346 0.9711,0.12629 0.87358,0.49923 -0.13457,0.51462 0.52973,1.26217 1.93575,2.17834 1.05789,0.68933 1.31689,0.62236 1.08995,-0.28184 -0.0844,-0.33599 -0.0365,-0.60956 0.10659,-0.60956 0.41969,0 0.59473,0.77352 0.29977,1.32466 -0.41153,0.76896 -0.11143,1.3014 1.32759,2.35546 1.31241,0.96131 3.06083,1.45518 4.04539,1.1427 0.26606,-0.0845 0.76067,-0.66048 1.09914,-1.28007 0.49393,-0.90419 0.57804,-1.32569 0.42612,-2.13546 -0.28139,-1.49995 -0.55109,-1.84728 -1.58502,-2.04125 -1.48318,-0.27825 -2.11827,-0.66426 -2.8645,-1.74108 -0.88294,-1.27409 -1.55307,-1.43839 -3.09139,-0.75791 -1.61957,0.71641 -2.00942,0.6849 -2.93122,-0.23691 -0.4617,-0.46168 -1.04907,-0.77765 -1.44565,-0.77765 -0.3674,0 -0.66799,-0.11665 -0.66799,-0.25922 0,-0.14257 -0.20413,-0.26101 -0.45363,-0.26318 -0.2495,-0.002 -0.62253,-0.11083 -0.82894,-0.24142 -0.30057,-0.19015 -0.23605,-0.30089 0.32402,-0.55607 0.38463,-0.17525 0.69933,-0.52367 0.69933,-0.77427 0,-0.72836 0.28624,-1.27569 0.66714,-1.27569 0.19385,0 0.76593,0.41348 1.2713,0.91884 0.7782,0.7782 0.87589,0.99907 0.63826,1.44309 -0.21665,0.40481 -0.18259,0.67378 0.14949,1.18061 0.49269,0.75194 1.2052,0.73684 3.27511,-0.0694 1.01767,-0.3964 1.45233,-0.42887 2.78661,-0.2082 1.2286,0.20319 1.58085,0.18953 1.58085,-0.0613 0,-0.53554 -1.0528,-1.11243 -3.26916,-1.79133 -1.15647,-0.35425 -2.31528,-0.87901 -2.57513,-1.16615 -0.96928,-1.07105 -2.09581,-1.54073 -4.10221,-1.71033 -1.08766,-0.0919 -1.97758,-0.27918 -1.97758,-0.41608 0,-0.13691 -0.17938,-0.18008 -0.39864,-0.0959 -0.21997,0.0845 -0.46036,-0.008 -0.53637,-0.20595 -0.22676,-0.59094 -2.69405,-1.1168 -2.69405,-0.57418 0,0.12355 -0.25639,0.1576 -0.56976,0.0756 -0.31336,-0.0819 -0.73052,-0.0156 -0.92701,0.14751 -0.21508,0.1785 -0.42679,0.19997 -0.53194,0.054 -0.0961,-0.1334 -0.407797,-0.24255 -0.692752,-0.24255 -0.669515,0 -0.692645,-0.86274 -0.04085,-1.5243 0.35286,-0.35814 0.39739,-0.53862 0.167895,-0.68045 -0.221065,-0.13663 -0.229345,-0.24432 -0.0283,-0.36856 0.19651,-0.12144 0.15821,-0.36753 -0.124275,-0.79866 -0.224565,-0.34272 -0.33303,-0.7449 -0.241045,-0.89374 0.092,-0.14884 0.11213,-0.27062 0.0448,-0.27062 -0.244695,0 -2.16014,3.54938 -2.984605,5.53057 -2.7393109,6.58259 -1.8951312,14.83798 2.13045,20.834 1.25884,1.87502 2.635782,3.44563 3.020762,3.44563 0.12863,0 0.50183,-0.10717 0.82932,-0.23814 z m 22.25728,-11.17663 c 0.82294,-0.44043 0.6193,-1.02776 -0.35633,-1.02776 -0.98692,0 -1.90011,0.55915 -1.62915,0.99756 0.22946,0.37127 1.31726,0.38782 1.98548,0.0301 z m -1.06055,-4.26 c 0.25352,-0.30547 0.2208,-0.50194 -0.1653,-0.9928 -0.26476,-0.33658 -0.626,-0.56375 -0.80277,-0.50483 -0.17676,0.0589 -0.32139,-0.0776 -0.32139,-0.30331 0,-0.22573 -0.1238,-0.41042 -0.27511,-0.41042 -0.18012,0 -0.21323,-0.41262 -0.0959,-1.19515 0.12693,-0.84647 0.0838,-1.25413 -0.14791,-1.39733 -0.22399,-0.13842 -0.031,-0.34268 0.61203,-0.64783 0.93339,-0.44292 1.04737,-0.9072 0.22271,-0.9072 -0.33397,0 -0.29687,-0.094 0.16457,-0.4173 0.38614,-0.27046 0.8644,-0.36358 1.35917,-0.26462 1.01534,0.20307 1.86959,-0.59356 1.63571,-1.52539 -0.0972,-0.38736 -0.0503,-0.6441 0.11753,-0.6441 0.15355,0 0.21204,-0.17497 0.12998,-0.38882 -0.22674,-0.59088 -0.96792,-0.46595 -1.66868,0.28123 -0.62842,0.67007 -0.62842,0.67007 0.0196,1.20663 0.64804,0.53654 0.64804,0.53654 0,0.33965 -1.07354,-0.32618 -1.9501,-0.30201 -1.87934,0.0518 0.0893,0.44643 -0.19313,0.40553 -0.76337,-0.11053 -0.60087,-0.54377 -0.7618,-0.37761 -1.61375,1.66608 -0.64604,1.54974 -0.65783,1.66269 -0.27055,2.59218 0.2227,0.53452 0.83663,1.63752 1.36428,2.45113 0.99735,1.53785 1.74138,1.8885 2.37843,1.12091 z m -5.05571,-1.44207 c -0.55908,-0.61778 -2.17427,-1.65488 -2.33187,-1.49728 -0.0599,0.0599 0.2464,0.53974 0.68056,1.06644 0.53825,0.653 1.00229,0.95765 1.45871,0.95765 0.65648,0 0.66018,-0.0102 0.1926,-0.52681 z m -1.73821,-4.20392 c -0.15775,-0.49119 -2.5255,-1.70239 -3.69783,-1.89157 -0.59905,-0.0967 -1.22095,-0.40142 -1.47278,-0.72172 -0.23975,-0.30492 -0.52864,-0.46167 -0.64198,-0.34832 -0.26328,0.26328 1.61136,1.87018 2.6332,2.2571 0.42771,0.16197 1.12761,0.45217 1.55531,0.64492 0.99666,0.44915 1.75815,0.47709 1.62408,0.0596 z m 2.84569,-1.90269 c -0.33229,-0.33231 -0.7104,0.21795 -0.69451,1.01072 0.0166,0.82717 0.0166,0.82717 0.43463,-0.0127 0.22993,-0.46192 0.34688,-0.91104 0.25988,-0.99803 z m -2.89072,-0.49734 c 0.10241,-0.40806 0.39394,-0.69774 0.78259,-0.77766 0.34066,-0.07 0.916,-0.18916 1.27853,-0.26468 1.1551,-0.24067 1.06721,-0.84891 -0.29982,-2.07484 -0.75354,-0.67575 -1.4241,-1.07873 -1.65542,-0.99484 -0.21386,0.0776 -0.60229,0.18439 -0.86317,0.23741 -0.26089,0.053 -0.68911,0.16456 -0.95161,0.24788 -0.26249,0.0833 -0.60022,10e-4 -0.75051,-0.18353 -1.4608,-1.7909 -1.42702,-1.76715 -1.94945,-1.37 -0.66737,0.50733 -0.63732,1.76725 0.0648,2.71693 0.32725,0.44263 0.56165,1.14269 0.56165,1.67743 0,0.8618 0.0513,0.918 0.84247,0.92174 0.46335,0.002 1.01742,0.11703 1.23129,0.25524 0.74436,0.48105 1.53519,0.30004 1.70865,-0.39108 z m -4.56848,-1.43918 c -0.30578,-0.57133 -0.76924,-0.67118 -0.76924,-0.16572 0,0.4435 0.54231,0.97495 0.81985,0.80342 0.12013,-0.0743 0.0974,-0.36121 -0.0507,-0.6377 z m 15.15747,-0.89978 c 0.27675,-0.20932 0.38653,-0.38059 0.24397,-0.38059 -0.14258,0 -0.48565,0.17127 -0.76241,0.38059 -0.27674,0.20932 -0.38653,0.38058 -0.24396,0.38058 0.14258,0 0.48565,-0.17126 0.7624,-0.38058 z m -23.07499,-6.48583 c 0.174,-0.69327 1.46866,-1.42529 2.18807,-1.23717 0.27224,0.0712 0.57354,0.002 0.66956,-0.15306 0.12252,-0.19823 0.32456,-0.20225 0.67731,-0.0134 0.34902,0.18678 0.65984,0.18494 1.01667,-0.006 0.38358,-0.20529 0.86036,-0.16333 1.87934,0.16537 0.75096,0.24224 1.44034,0.55267 1.53197,0.68985 0.33991,0.50895 1.42272,-0.0798 1.98416,-1.07865 0.59419,-1.05722 1.74221,-2.00536 1.97399,-1.63032 0.0737,0.11915 0.98375,0.2025 2.02247,0.18521 1.03871,-0.0173 2.23136,0.0571 2.65032,0.16525 0.55038,0.14209 0.88957,0.081 1.22241,-0.22024 0.41541,-0.37594 1.42609,-0.48577 3.20023,-0.34779 0.28514,0.0221 0.86838,-0.0201 1.29609,-0.094 0.42772,-0.0739 0.89431,-0.14308 1.03688,-0.15378 0.32052,-0.0241 -0.66561,-0.54288 -2.1695,-1.14139 -3.08136,-1.22631 -9.71696,-1.63411 -13.12443,-0.80657 -2.79251,0.67817 -7.24087,2.92146 -9.11926,4.59879 -0.88105,0.78674 -1.5369,1.49544 -1.45743,1.57491 0.0795,0.0795 0.64553,0.13442 1.25793,0.12212 0.93672,-0.0188 1.13723,-0.11706 1.26322,-0.61903 z m 27.11202,-1.65937 c -0.3543,-0.27222 -0.69572,-0.4434 -0.75874,-0.38038 -0.14658,0.14658 0.80073,0.86957 1.1437,0.87285 0.14257,10e-4 -0.0306,-0.22024 -0.38496,-0.49247 z"
       id="path147"
       sodipodi:nodetypes="sssssssssccscsssssssssssssscsssscsssssssscsssssssssssscscsssssssscssscssssssssscsssssssssscscssssssscsscsssssssscccsssssssssscssssccssssssssssssssscsssssssssssscsscscsssssssssssscccsscccsssscssssscsssssssssscccssscscsssssscsscccssscsccssscscccssccssssscccccssssccccccsssssccsscs"
       inkscape:label="logo" />
    <text
       xml:space="preserve"
       style="font-size:3.52778px;line-height:1.25;font-family:'Arial Black';-inkscape-font-specification:'Arial Black, ';stroke-width:0.264583"
       x="2.2506118"
       y="75.057465"
       id="text1403"
       inkscape:label="corp-type"><tspan
         sodipodi:role="line"
         id="tspan1401"
         style="font-size:3.52778px;stroke-width:0.264583"
         x="2.2506118"
         y="75.057465">Identity: <tspan
   style="font-style:normal;font-variant:normal;font-weight:normal;font-stretch:normal;font-size:3.52778px;font-family:Arial;-inkscape-font-specification:Arial"
   id="tspan20771">Megacorp</tspan></tspan></text>
    <text
       xml:space="preserve"
       style="font-size:2.82222px;line-height:1.25;font-family:'Arial Black';-inkscape-font-specification:'Arial Black, ';white-space:pre;inline-size:91.7964;stroke-width:0.264583"
       x="15.926763"
       y="76.41629"
       id="text1869"
       transform="translate(-13.422185,3.1457167)"
       inkscape:label="ability"><tspan
         x="15.926763"
         y="76.41629"
         id="tspan1223"><tspan
           style="font-family:Arial;-inkscape-font-specification:Arial"
           id="tspan1221">Whenever an agenda is scored or stolen,
</tspan></tspan><tspan
         x="15.926763"
         y="79.955846"
         id="tspan1227"><tspan
           style="font-family:Arial;-inkscape-font-specification:Arial"
           id="tspan1225">do 1 net damage.</tspan></tspan></text>
    <text
       xml:space="preserve"
       style="font-size:4.23333px;line-height:1.25;font-family:'Arial Black';-inkscape-font-specification:'Arial Black, ';stroke-width:0.264583"
       x="2.467653"
       y="5.8017502"
       id="text1403-1"
       inkscape:label="JPE"><tspan
         sodipodi:role="line"
         id="tspan1401-8"
         style="font-size:4.23333px;stroke-width:0.264583"
         x="2.467653"
         y="5.8017502">Jinteki: <tspan
   style="font-style:normal;font-variant:normal;font-weight:normal;font-stretch:normal;font-size:4.23333px;font-family:Arial;-inkscape-font-specification:Arial"
   id="tspan20771-9">Personal Evolution</tspan></tspan></text>
    <g
       id="g8052"
       transform="translate(3.2989468,-0.9100543)"
       inkscape:label="cards">
      <circle
         style="fill:#000000;fill-opacity:1;stroke-width:0.75"
         id="path70399"
         cx="51.018173"
         cy="67.649368"
         inkscape:label="circle"
         r="3.8100002" />
      <text
         xml:space="preserve"
         style="font-size:4.23333px;line-height:1.25;font-family:'Arial Black';-inkscape-font-specification:'Arial Black, ';fill:#ffffff;stroke-width:0.264583"
         x="48.231781"
         y="69.16452"
         id="text51477"
         inkscape:label="45"><tspan
           sodipodi:role="line"
           id="tspan51475"
           style="font-size:4.23333px;fill:#ffffff;stroke-width:0.264583"
           x="48.231781"
           y="69.16452">45</tspan></text>
    </g>
    <g
       id="g8047"
       transform="translate(1.7114467,-0.38088762)"
       inkscape:label="influence">
      <circle
         style="fill:#000000;fill-opacity:1;stroke-width:0.75"
         id="path70399-6"
         cx="56.982033"
         cy="72.430908"
         r="3.8100002"
         inkscape:label="circle" />
      <text
         xml:space="preserve"
         style="font-size:4.23333px;line-height:1.25;font-family:'Arial Black';-inkscape-font-specification:'Arial Black, ';fill:#ffffff;stroke-width:0.264583"
         x="54.066452"
         y="73.94606"
         id="text53755"
         inkscape:label="15"><tspan
           sodipodi:role="line"
           id="tspan53753"
           style="font-size:4.23333px;fill:#ffffff;stroke-width:0.264583"
           x="54.066452"
           y="73.94606">15</tspan></text>
    </g>
    <rect
       style="vector-effect:non-scaling-stroke;fill:none;stroke:#ff0000;stroke-width:0;stroke-miterlimit:4;stroke-dasharray:none;-inkscape-stroke:hairline"
       id="rect942"
       width="63.5"
       height="88.900002"
       x="0"
       y="0"
       rx="5.0799999"
       inkscape:label="border" />
  </g>
</svg>
